<svg id="ico-gnb03-sel" xmlns="http://www.w3.org/2000/svg" width="26" height="26" viewBox="0 0 26 26">
  <rect id="area" width="26" height="26" fill="none"/>
  <g id="icon">
    <g id="그룹_30000" data-name="그룹 30000" transform="translate(-0.001)">
      <g id="패스_64876" data-name="패스 64876" transform="translate(3 1.651)" fill="none">
        <path d="M5.6,1h8.8c2.43,0,3.984,1.91,4.4,4.139L21,17.558A4.276,4.276,0,0,1,16.6,21.7H3.4A4.276,4.276,0,0,1-1,17.558L1.2,5.139C1.607,2.872,3.17,1,5.6,1Z" stroke="none"/>
        <path d="M 5.600000381469727 2.999996185302734 C 3.759120941162109 2.999996185302734 3.273509979248047 4.908016204833984 3.169330596923828 5.488286972045898 L 1.005453109741211 17.70256996154785 C 1.089391708374023 18.81485939025879 2.131322860717773 19.69697761535645 3.399999618530273 19.69697761535645 L 16.60000038146973 19.69697761535645 C 17.86867713928223 19.69697761535645 18.91060829162598 18.81485939025879 18.99454689025879 17.70256996154785 L 16.83247756958008 5.498495101928711 C 16.69067192077637 4.744968414306641 16.37033462524414 4.084016799926758 15.9299898147583 3.636636734008789 C 15.50833988189697 3.208246231079102 15.00786972045898 2.999996185302734 14.39999961853027 2.999996185302734 L 5.600000381469727 2.999996185302734 M 5.600000381469727 0.9999961853027344 L 14.39999961853027 0.9999961853027344 C 16.83004951477051 0.9999961853027344 18.38427925109863 2.910026550292969 18.79999923706055 5.139396667480469 L 21 17.55757713317871 C 21 19.84370613098145 19.03005027770996 21.69697761535645 16.60000038146973 21.69697761535645 L 3.399999618530273 21.69697761535645 C 0.9699497222900391 21.69697761535645 -1 19.84370613098145 -1 17.55757713317871 L 1.200000762939453 5.139396667480469 C 1.60713005065918 2.871616363525391 3.169950485229492 0.9999961853027344 5.600000381469727 0.9999961853027344 Z" stroke="none" fill="#f0580f"/>
      </g>
      <path id="패스_64880" data-name="패스 64880" d="M9,10v1a3,3,0,0,0,6,0V10" transform="translate(0.999 -1.999)" fill="none" stroke="#f0580f" stroke-linecap="round" stroke-linejoin="round" stroke-width="2"/>
    </g>
  </g>
</svg>
