<svg id="icon-health" xmlns="http://www.w3.org/2000/svg" xmlns:xlink="http://www.w3.org/1999/xlink" width="28" height="28" viewBox="0 0 28 28">
  <defs>
    <clipPath id="clip-path">
      <rect id="사각형_7927" data-name="사각형 7927" width="28" height="28" fill="none"/>
    </clipPath>
  </defs>
  <g id="그룹_20511" data-name="그룹 20511" clip-path="url(#clip-path)">
    <g id="_014---Healthy-Living" data-name="014---Healthy-Living" transform="translate(3.513 2.513)">
      <path id="Shape" d="M10.043,29.554a13.891,13.891,0,0,0-.64,4.932,8.208,8.208,0,0,1-4.314-.076C.725,33.039-1.011,27.717.588,24a8.486,8.486,0,0,0,3.59,1.5,7.57,7.57,0,0,1,4.339,1.725,6.335,6.335,0,0,1,1.526,2.325Z" transform="translate(0 -14.692)" fill="#24ae5f"/>
      <path id="Shape-2" data-name="Shape" d="M16.889,43.089a.362.362,0,0,1-.318-.188,17.569,17.569,0,0,0-5.3-5.373.362.362,0,0,1,.4-.586,18.241,18.241,0,0,1,5.532,5.626.339.339,0,0,1-.318.521Z" transform="translate(-7.125 -22.933)" fill="#4c8056"/>
      <path id="Shape-3" data-name="Shape" d="M31.756,36.145a10.974,10.974,0,0,1-4.108.51c-.069,0-.13-.054-.2-.061v.061a1.085,1.085,0,0,1-.524-.134A2.164,2.164,0,0,1,26,34.486a13.854,13.854,0,0,1,.64-4.928,4.805,4.805,0,0,1,1.19-1.786c1.392-1.323,3-1.692,4.968-2.014A9.56,9.56,0,0,0,36.9,24C38.727,28.339,36.753,34.558,31.756,36.145Z" transform="translate(-16.597 -14.692)" fill="#4fba6f"/>
      <path id="합치기_61" data-name="합치기 61" d="M20237.213-9772.184c-.168-.025.2.3-4.771-4.73a3.287,3.287,0,0,1,2.3-5.594l.127,0,.025,0a3.274,3.274,0,0,1,.391.044,3.153,3.153,0,0,1,1.742.916l.252.242.246-.247a3.2,3.2,0,0,1,2.119-.955,3.289,3.289,0,0,1,2.463,5.594l-4.582,4.629a.345.345,0,0,1-.182.1.326.326,0,0,1-.068.008A.289.289,0,0,1,20237.213-9772.184Z" transform="translate(-20226.787 9783.5)" fill="#ff536a"/>
      <path id="Shape-4" data-name="Shape" d="M34.857,39.738a15.949,15.949,0,0,0-5.583,6.541h-.2a1.085,1.085,0,0,1-.524-.134.267.267,0,0,1,0-.051,16.036,16.036,0,0,1,5.876-6.949.367.367,0,0,1,.434.593Z" transform="translate(-18.223 -24.315)" fill="#4c8056"/>
    </g>
  </g>
</svg>
