<svg id="icon-kitchen" xmlns="http://www.w3.org/2000/svg" xmlns:xlink="http://www.w3.org/1999/xlink" width="28" height="28" viewBox="0 0 28 28">
  <defs>
    <clipPath id="clip-path">
      <rect id="사각형_7974" data-name="사각형 7974" width="28" height="28" fill="none"/>
    </clipPath>
  </defs>
  <g id="그룹_20569" data-name="그룹 20569" clip-path="url(#clip-path)">
    <g id="그룹_25187" data-name="그룹 25187" transform="translate(2.481 2.481)">
      <path id="패스_55660" data-name="패스 55660" d="M22.386,8.964,14.074.652a2.224,2.224,0,0,0-3.145,0L.974,10.606a2.224,2.224,0,0,0,0,3.145l1.62,1.62a.971.971,0,0,1-.11,1.468l-1.36,1a2.766,2.766,0,0,0-1.112,2.49h0a2.991,2.991,0,0,0,2.693,2.693h0A2.766,2.766,0,0,0,5.2,21.913l1-1.36a.971.971,0,0,1,1.468-.11l1.62,1.62a2.224,2.224,0,0,0,3.145,0l9.954-9.954A2.224,2.224,0,0,0,22.386,8.964ZM2.095,20.943a1.173,1.173,0,1,1,1.659,0A1.173,1.173,0,0,1,2.095,20.943Z" transform="translate(0)" fill="#aa6544"/>
      <path id="패스_55661" data-name="패스 55661" d="M19.731,44.861a1.669,1.669,0,0,0,.989.348,1.516,1.516,0,0,0,.262-.023c1.053-.185,1.759-1.192,2.507-2.258a11.621,11.621,0,0,1,1.149-1.469l-.477-.477a12.2,12.2,0,0,0-1.224,1.558c-.665.949-1.294,1.845-2.071,1.981a.945.945,0,0,1-.738-.206c-.865-.627-1.55-2.387-1.968-3.85l-.543.543C18.062,42.472,18.768,44.163,19.731,44.861Zm-5.377,5.528a2.826,2.826,0,0,0-.469-3.566,2.879,2.879,0,0,0-1.447-.636l-.638.638a2.389,2.389,0,0,1,1.647.512,2.159,2.159,0,0,1,.3,2.75,2.918,2.918,0,0,1-1.96,1.62,5.122,5.122,0,0,1-2.994-.32,2.21,2.21,0,0,0,.437.853,6.2,6.2,0,0,0,1.667.245,4.382,4.382,0,0,0,1.052-.122A3.566,3.566,0,0,0,14.355,50.389Zm14.261-1.513a4.651,4.651,0,0,0-4.667,1.486c-1.48,1.765-1.107,3.392-.778,4.827a4.563,4.563,0,0,1-.028,3.206l.965-.965a7.4,7.4,0,0,0-.279-2.393c-.322-1.407-.627-2.735.637-4.243,1.824-2.175,4.765-1.257,6.619-.414a2.208,2.208,0,0,0,.274-.615A11.647,11.647,0,0,0,28.616,48.877Zm-.572-4.012a10.015,10.015,0,0,0-6.9,3.386,9.517,9.517,0,0,0-2.068,7.718,4.286,4.286,0,0,1-1.592,4.536l.2.2a2.236,2.236,0,0,0,.305.254,5.777,5.777,0,0,0,1.167-1.3,5.178,5.178,0,0,0,.584-3.809,8.835,8.835,0,0,1,1.917-7.166,9.528,9.528,0,0,1,7.011-3.195Zm-10.459.948a4.453,4.453,0,0,0-2.9-1.867l-.628.628q.147,0,.294.011a3.733,3.733,0,0,1,2.689,1.62,5.232,5.232,0,0,1,.825,2.925,5.693,5.693,0,0,1-.934,3.27,4.213,4.213,0,0,1-2.33,1.669,7.217,7.217,0,0,1-3.542.011.967.967,0,0,1,.219.731,9.372,9.372,0,0,0,1.661.158,6.521,6.521,0,0,0,1.853-.252,4.872,4.872,0,0,0,2.693-1.932,6.371,6.371,0,0,0,1.054-3.66A5.914,5.914,0,0,0,17.584,45.813Z" transform="translate(-8.401 -38.644)" opacity="0.1"/>
      <path id="패스_55662" data-name="패스 55662" d="M8.184,75.487.974,82.7a2.224,2.224,0,0,0,0,3.145l1.62,1.62a.971.971,0,0,1-.11,1.468l-1.36,1a2.766,2.766,0,0,0-1.112,2.49h0a2.991,2.991,0,0,0,2.693,2.693h0A2.766,2.766,0,0,0,5.2,94l1-1.36a.971.971,0,0,1,1.468-.11l1.62,1.62a2.224,2.224,0,0,0,3.145,0l4.6-4.6C12.706,88.435,8.7,81.125,8.184,75.487ZM3.754,93.033a1.173,1.173,0,1,1,0-1.659A1.173,1.173,0,0,1,3.754,93.033Z" transform="translate(0 -72.09)" opacity="0.1"/>
      <path id="합치기_81" data-name="합치기 81" d="M19959.979-9770.155l-7-7a1.582,1.582,0,0,1-.461-1.118,1.581,1.581,0,0,1,.461-1.117l3.092-3.092,4.781,4.78a35.219,35.219,0,0,1,4.139,4.991l1.5,2.19a1.407,1.407,0,0,1-.945,2.185,6.542,6.542,0,0,1-.99.076A6.46,6.46,0,0,1,19959.979-9770.155Z" transform="translate(-19946.514 9789.846)" fill="#d6d8db"/>
      <path id="패스_55664" data-name="패스 55664" d="M133.872,234.6l7,7a6.472,6.472,0,0,0,5.564,1.82h0a1.407,1.407,0,0,0,1.058-1.992c-3.07.842-4.82-.26-5.883-1.324l-7.738-7.738A1.579,1.579,0,0,0,133.872,234.6Z" transform="translate(-127.407 -221.911)" fill="#afafaf"/>
      <path id="합치기_80" data-name="합치기 80" d="M19953.158-9778.747a2.186,2.186,0,0,1-.643-1.548,2.172,2.172,0,0,1,.643-1.544,2.174,2.174,0,0,1,3.086,0l5.436,5.431-3.092,3.091Z" transform="translate(-19952.123 9783.774)" fill="#8146f2"/>
      <circle id="타원_2334" data-name="타원 2334" cx="0.742" cy="0.742" r="0.742" transform="translate(1.838 2.737)" fill="#f0f1f1"/>
    </g>
  </g>
</svg>
