<svg id="icon-beauty" xmlns="http://www.w3.org/2000/svg" xmlns:xlink="http://www.w3.org/1999/xlink" width="28" height="28" viewBox="0 0 28 28">
  <defs>
    <clipPath id="clip-path">
      <rect id="사각형_7974" data-name="사각형 7974" width="28" height="28" fill="none"/>
    </clipPath>
  </defs>
  <g id="그룹_20569" data-name="그룹 20569" clip-path="url(#clip-path)">
    <g id="그룹_25139" data-name="그룹 25139" transform="translate(1.482 2.189)">
      <g id="그룹_25140" data-name="그룹 25140" transform="translate(4.994 0.068)">
        <path id="합치기_65" data-name="합치기 65" d="M7.224,5.6H.69A.691.691,0,0,1,0,4.912V.692A.691.691,0,0,1,.69,0H13.758a.691.691,0,0,1,.69.691v4.22a.691.691,0,0,1-.69.691Z" transform="translate(0.299 17.885)" fill="#37464e"/>
        <path id="합치기_66" data-name="합치기 66" d="M.686,1.38A.69.69,0,1,1,1.379.688.69.69,0,0,1,.686,1.38Z" transform="translate(6.835 20.045)" fill="#a7a4eb"/>
        <path id="합치기_62" data-name="합치기 62" d="M7.521,17.888A7.529,7.529,0,0,1,0,10.356V7.531A7.525,7.525,0,0,1,7.521,0,7.66,7.66,0,0,1,12.84,2.206a7.7,7.7,0,0,1,2.207,5.325v2.825A7.53,7.53,0,0,1,7.521,17.888Z" fill="#6662ce"/>
        <path id="합치기_63" data-name="합치기 63" d="M5.137,13.477a4.97,4.97,0,0,1-1.375-.187,5.152,5.152,0,0,1-1.52-.709c.193-.819.389-1.641.58-2.461l2.314-.48Q6.095,7.618,7.043,5.6C8.1,5.218,9.17,4.845,10.23,4.466a4.9,4.9,0,0,1,.047.682V8.334A5.148,5.148,0,0,1,5.137,13.477ZM0,8.334V5.147A5.136,5.136,0,0,1,8.473,1.231L7.561,3.96c-.8.218-1.613.441-2.424.66C4.561,5.92,3.984,7.226,3.4,8.526L.176,9.661A4.952,4.952,0,0,1,0,8.334Z" transform="translate(2.386 2.203)" fill="#e9f4ff"/>
        <path id="합치기_64" data-name="합치기 64" d="M0,8.431,4.961,3.385l0,0L8.3,0a5.155,5.155,0,0,1,1.764,3.23l-5.1,5.179L2.068,11.352A5.137,5.137,0,0,1,0,8.431Z" transform="translate(2.559 3.435)" fill="#cde8ff"/>
      </g>
    </g>
  </g>
</svg>
