<svg id="icon-home" xmlns="http://www.w3.org/2000/svg" width="26" height="26" viewBox="0 0 26 26">
  <rect id="icon-setting-mono_Background_Mask_" data-name="icon-setting-mono (Background/Mask)" width="26" height="26" fill="none"/>
  <path id="Vector" d="M19.52,7.164,10.793.225a1.031,1.031,0,0,0-1.285,0L.78,7.164A2.066,2.066,0,0,0,0,8.781v9.73a2.48,2.48,0,0,0,2.48,2.48h5.6V16.081a1.033,1.033,0,0,1,1.033-1.033h2.066a1.033,1.033,0,0,1,1.033,1.033v4.909h5.6a2.48,2.48,0,0,0,2.48-2.48V8.782a2.066,2.066,0,0,0-.78-1.617" transform="translate(2.85 2.505)" fill="none" stroke="#060606" stroke-width="1.6"/>
</svg>
