<svg id="icon-all" xmlns="http://www.w3.org/2000/svg" xmlns:xlink="http://www.w3.org/1999/xlink" width="28" height="28" viewBox="0 0 28 28">
  <defs>
    <linearGradient id="linear-gradient" x1="0.21" y1="0.804" x2="0.895" y2="0.137" gradientUnits="objectBoundingBox">
      <stop offset="0" stop-color="#f0580f"/>
      <stop offset="1" stop-color="#ff7634"/>
    </linearGradient>
  </defs>
  <rect id="area" width="28" height="28" fill="none"/>
  <g id="그룹_30006" data-name="그룹 30006" transform="translate(2.916 2.916)">
    <path id="합치기_58" data-name="합치기 58" d="M7.92,21.175,4.245,17.5.57,13.824a1.946,1.946,0,0,1,0-2.752l10.5-10.5A1.956,1.956,0,0,1,12.926.059L18.8,1.528a1.979,1.979,0,0,1,1.415,1.414l1.47,5.876a1.969,1.969,0,0,1-.516,1.858l-10.5,10.5a1.946,1.946,0,0,1-2.752,0ZM17.105,7.4a1.949,1.949,0,1,0-2.757,0c.032.034.07.067.1.1A1.95,1.95,0,0,0,17.105,7.4Z" transform="translate(0.001 0.423)" fill="url(#linear-gradient)"/>
    <path id="패스_55583" data-name="패스 55583" d="M170.321,170.762a1.948,1.948,0,1,1,2.755,0A1.951,1.951,0,0,1,170.321,170.762Zm1.837-1.837a.649.649,0,1,0,0,.918A.65.65,0,0,0,172.158,168.925Z" transform="translate(-162.401 -160.188)" fill="#fff"/>
    <path id="패스_55584" data-name="패스 55584" d="M191.534,319.255a1.948,1.948,0,1,1,2.755,0A1.951,1.951,0,0,1,191.534,319.255Zm1.837-1.837a.649.649,0,1,0,0,.918A.65.65,0,0,0,193.371,317.418Z" transform="translate(-182.696 -302.251)" fill="#fff"/>
    <path id="합치기_59" data-name="합치기 59" d="M.189,2.024A.657.657,0,0,1,0,1.64.644.644,0,0,1,.574.924L5.512.374l0,0L8.841.006a.638.638,0,0,1,.716.57.457.457,0,0,1,0,.066.648.648,0,0,1-.576.65l-4.938.55L.719,2.209a.589.589,0,0,1-.084.006A.625.625,0,0,1,.189,2.024Z" transform="translate(4.975 11.305)" fill="#fff"/>
    <path id="합치기_83" data-name="합치기 83" d="M.652,6.175a.648.648,0,0,1-.459-.193.645.645,0,0,1,0-.92L5.064.195a.639.639,0,0,1,.915,0h0l0,0,0,0a.644.644,0,0,1,0,.916L1.114,5.983a.649.649,0,0,1-.461.193Z" transform="translate(15.993 0)" fill="#3c3c3c"/>
  </g>
</svg>
