<svg id="icon-life" xmlns="http://www.w3.org/2000/svg" xmlns:xlink="http://www.w3.org/1999/xlink" width="28" height="28" viewBox="0 0 28 28">
  <defs>
    <clipPath id="clip-path">
      <rect id="사각형_7967" data-name="사각형 7967" width="28" height="28" fill="none"/>
    </clipPath>
  </defs>
  <g id="그룹_20562" data-name="그룹 20562" clip-path="url(#clip-path)">
    <g id="그룹_25141" data-name="그룹 25141" transform="translate(3.281 -21.189)">
      <path id="합치기_67" data-name="합치기 67" d="M20186.436-9745.773h-10.092a.627.627,0,0,1-.629-.623v-11.785a.631.631,0,0,1,.629-.628h20.184a.631.631,0,0,1,.629.628v11.785a.627.627,0,0,1-.629.623Z" transform="translate(-20175.717 9790.608)" fill="#ff4683"/>
      <path id="합치기_68" data-name="합치기 68" d="M20183.371-9754.2h-7.029a.628.628,0,0,1-.623-.629v-3.35a.624.624,0,0,1,.623-.628h14.053a.627.627,0,0,1,.627.628v3.35a.631.631,0,0,1-.627.629Z" transform="translate(-20172.65 9796.74)" fill="#e9f4ff"/>
      <path id="합치기_70" data-name="합치기 70" d="M20182.77-9749.981c-.674.238-1.354.477-2.027.71q-1.216-.35-2.432-.71a12.14,12.14,0,0,0-1.318-5.32,14.638,14.638,0,0,0-1.17-2.255.633.633,0,0,1-.082-.521.631.631,0,0,1,.346-.4,3.769,3.769,0,0,1,3.086,0,2.509,2.509,0,0,0,2.057,0,3.725,3.725,0,0,1,1.541-.334,3.742,3.742,0,0,1,1.545.334,2.509,2.509,0,0,0,2.057,0,3.769,3.769,0,0,1,3.086,0,.631.631,0,0,1,.346.4.633.633,0,0,1-.082.521,16.975,16.975,0,0,0-2.488,7.575c-.7.254-1.4.5-2.107.755C20184.34-9749.479,20183.555-9749.728,20182.77-9749.981Z" transform="translate(-20172.053 9784.351)" fill="#d3e9ff"/>
      <path id="합치기_71" data-name="합치기 71" d="M20178.582-9753.743c.121-.942.061-1.7.1-2.224.051-.755.127-1.52.213-2.289a.633.633,0,0,1,.7-.553.636.636,0,0,1,.553.7,43.755,43.755,0,0,0-.3,4.366l-.664.815C20178.977-9753.2,20178.779-9753.47,20178.582-9753.743Zm-2.559,0a43.739,43.739,0,0,0-.3-4.366.633.633,0,0,1,.551-.7.634.634,0,0,1,.7.553,44.42,44.42,0,0,1,.309,4.513c-.186.207-.369.42-.557.628C20176.49-9753.323,20176.258-9753.536,20176.023-9753.743Z" transform="translate(-20167.213 9788.113)" fill="#96c5ed"/>
      <path id="합치기_69" data-name="합치기 69" d="M20181.926-9757.556h-5.578a.632.632,0,0,1-.633-.629.632.632,0,0,1,.633-.628h11.156a.631.631,0,0,1,.629.628.632.632,0,0,1-.629.629Z" transform="translate(-20171.205 9793.18)" fill="#ff80aa"/>
    </g>
  </g>
</svg>
