<svg id="icon-car" xmlns="http://www.w3.org/2000/svg" xmlns:xlink="http://www.w3.org/1999/xlink" width="28" height="28" viewBox="0 0 28 28">
  <defs>
    <clipPath id="clip-path">
      <rect id="사각형_7967" data-name="사각형 7967" width="28" height="28" fill="none"/>
    </clipPath>
  </defs>
  <g id="그룹_20562" data-name="그룹 20562" clip-path="url(#clip-path)">
    <g id="그룹_25159" data-name="그룹 25159" transform="translate(1.666 -46.324)">
      <g id="그룹_25169" data-name="그룹 25169" transform="translate(0.001 64.525)">
        <path id="패스_55641" data-name="패스 55641" d="M5.224,364.455l-4.413-.368a.722.722,0,0,0-.782.72v2.353a1.68,1.68,0,0,0,1.679,1.679h2.5a1.68,1.68,0,0,0,1.679-1.679v-1.986a.722.722,0,0,0-.662-.72Z" transform="translate(-0.029 -364.085)" fill="#453d81"/>
      </g>
      <g id="그룹_25170" data-name="그룹 25170" transform="translate(18.807 64.63)">
        <path id="패스_55642" data-name="패스 55642" d="M396.164,366.472a.722.722,0,0,0-.522-.205l-4.413.105a.722.722,0,0,0-.705.722v2.143a1.68,1.68,0,0,0,1.679,1.679h2.5a1.68,1.68,0,0,0,1.679-1.679v-2.248A.722.722,0,0,0,396.164,366.472Z" transform="translate(-390.524 -366.266)" fill="#001035"/>
      </g>
      <path id="합치기_75" data-name="합치기 75" d="M20029.84-9733.23a.724.724,0,0,1-.725-.725.723.723,0,0,1,.725-.719h3.252a.718.718,0,0,1,.719.719.719.719,0,0,1-.719.725Zm-19.785,0a.726.726,0,0,1-.725-.725.724.724,0,0,1,.725-.719h3.3a.719.719,0,0,1,.719.719.721.721,0,0,1-.719.725Z" transform="translate(-20009.238 9793.16)" fill="#060606"/>
      <g id="그룹_25185" data-name="그룹 25185" transform="translate(0 -1.216)">
        <path id="합치기_74" data-name="합치기 74" d="M10.238,8.229H.723a.709.709,0,0,1-.617-.406A.971.971,0,0,1,.08,7L2.045,2.478A3.784,3.784,0,0,1,5.494,0h9.484a3.788,3.788,0,0,1,3.449,2.478L20.393,7a.971.971,0,0,1-.023.826.742.742,0,0,1-.525.4.606.606,0,0,1-.094.007Z" transform="translate(2.092 53.076)" fill="#525cdd"/>
        <path id="합치기_76" data-name="합치기 76" d="M8.338,5.342H0L1.432,1.719A2.377,2.377,0,0,1,3.594,0h9.482a2.385,2.385,0,0,1,2.166,1.719L16.67,5.342Z" transform="translate(3.994 54.516)" fill="#e8f4ff"/>
        <path id="패스_55657" data-name="패스 55657" d="M10.156,53.56" fill="none" stroke="#707070" stroke-width="1"/>
        <g id="그룹_25186" data-name="그룹 25186" transform="translate(0.396 2)">
          <path id="패스_55658" data-name="패스 55658" d="M5.737,0H7.888L2.151,7.888H0Z" transform="translate(3.994 52.54)" fill="#cfe8fc"/>
          <path id="패스_55659" data-name="패스 55659" d="M5.737,0H7.888L2.151,7.888H0Z" transform="translate(9.057 52.54)" fill="#cfe8fc"/>
        </g>
      </g>
      <path id="합치기_77" data-name="합치기 77" d="M20023.832-9727.032h-13.775a.721.721,0,0,1-.725-.724v-2.469a4.455,4.455,0,0,1,4.449-4.45h15.768a4.457,4.457,0,0,1,4.449,4.45v2.469a.723.723,0,0,1-.723.724Z" transform="translate(-20009.332 9793.159)" fill="#4793ff"/>
      <path id="합치기_79" data-name="합치기 79" d="M20025.361-9733.231a.721.721,0,0,1-.725-.724.721.721,0,0,1,.725-.719h1.617a.719.719,0,0,1,.719.719.72.72,0,0,1-.719.724Zm-15.307,0a.719.719,0,0,1-.723-.724.719.719,0,0,1,.723-.719h1.8a.723.723,0,0,1,.723.719.723.723,0,0,1-.723.724Z" transform="translate(-20006.178 9796.259)" fill="#ffd845"/>
      <path id="합치기_78" data-name="합치기 78" d="M20013.26-9733.228h-3.205a.727.727,0,0,1-.723-.724.723.723,0,0,1,.723-.724h6.41a.721.721,0,0,1,.725.724.725.725,0,0,1-.725.724Z" transform="translate(-20000.93 9796.259)" fill="#001035"/>
    </g>
  </g>
</svg>
