<svg id="icon-star-on" xmlns="http://www.w3.org/2000/svg" width="14" height="14" viewBox="0 0 14 14">
  <rect id="area" width="14" height="14" fill="#fff" opacity="0"/>
  <path id="icon-star-mono" d="M8.112,1.623,9.453,4.342a.741.741,0,0,0,.558.405l3,.436a.741.741,0,0,1,.41,1.264L11.251,8.563a.742.742,0,0,0-.213.656l.513,2.987a.741.741,0,0,1-1.075.782L7.792,11.577a.74.74,0,0,0-.69,0L4.419,12.988a.742.742,0,0,1-1.076-.782l.513-2.987a.743.743,0,0,0-.213-.656L1.472,6.447a.741.741,0,0,1,.411-1.264l3-.436a.742.742,0,0,0,.559-.405L6.782,1.623A.742.742,0,0,1,8.112,1.623Z" transform="translate(-0.446 -0.143)" fill="#ffc500" fill-rule="evenodd"/>
</svg>
